<svg width="256" height="256" viewBox="0 0 256 256" fill="none" xmlns="http://www.w3.org/2000/svg">
<rect width="256" height="256" fill="#2D2D3A"/>
<g filter="url(#filter0_i)">
<path d="M97.375 85L115.75 103.429L91.25 128L115.75 152.571L97.375 171L72.875 146.429L48.375 171L30 152.571L54.5 128L30 103.429L48.375 85L72.875 109.571L97.375 85Z" fill="url(#paint0_linear)"/>
<path d="M121.875 85H146.375V171H121.875V85Z" fill="url(#paint1_linear)"/>
<path fill-rule="evenodd" clip-rule="evenodd" d="M226 85L152.5 85V171H226V85ZM201.5 146.429V109.571L177 109.571V146.429L201.5 146.429Z" fill="url(#paint2_linear)"/>
</g>
<defs>
<filter id="filter0_i" x="30" y="85" width="199" height="89" filterUnits="userSpaceOnUse" color-interpolation-filters="sRGB">
<feFlood flood-opacity="0" result="BackgroundImageFix"/>
<feBlend mode="normal" in="SourceGraphic" in2="BackgroundImageFix" result="shape"/>
<feColorMatrix in="SourceAlpha" type="matrix" values="0 0 0 0 0 0 0 0 0 0 0 0 0 0 0 0 0 0 127 0" result="hardAlpha"/>
<feOffset dx="3" dy="3"/>
<feGaussianBlur stdDeviation="2"/>
<feComposite in2="hardAlpha" operator="arithmetic" k2="-1" k3="1"/>
<feColorMatrix type="matrix" values="0 0 0 0 0 0 0 0 0 0 0 0 0 0 0 0 0 0 0.25 0"/>
<feBlend mode="normal" in2="shape" result="effect1_innerShadow"/>
</filter>
<linearGradient id="paint0_linear" x1="226" y1="171" x2="30" y2="85" gradientUnits="userSpaceOnUse">
<stop stop-color="#5566A4"/>
<stop offset="1" stop-color="#F7ECFF"/>
</linearGradient>
<linearGradient id="paint1_linear" x1="226" y1="171" x2="30" y2="85" gradientUnits="userSpaceOnUse">
<stop stop-color="#5566A4"/>
<stop offset="1" stop-color="#F7ECFF"/>
</linearGradient>
<linearGradient id="paint2_linear" x1="226" y1="171" x2="30" y2="85" gradientUnits="userSpaceOnUse">
<stop stop-color="#5566A4"/>
<stop offset="1" stop-color="#F7ECFF"/>
</linearGradient>
</defs>
</svg>
